<svg width="128" height="128" viewBox="0 0 128 128" fill="none" xmlns="http://www.w3.org/2000/svg">
<path fill-rule="evenodd" clip-rule="evenodd" d="M107.5 18H10V101.5H51.5433C51.3599 99.9276 51.2656 98.3278 51.2656 96.7059C51.2656 74.1917 69.433 55.9404 91.8437 55.9404C97.3931 55.9404 102.682 57.0596 107.5 59.0854V18Z" fill="white"/>
<path d="M6.5 17.059C6.5 8.46601 13.434 1.5 21.9875 1.5H95.8112C104.365 1.5 111.299 8.46601 111.299 17.059V32.618H6.5V17.059Z" fill="#30DF83"/>
<path d="M6.5 17.059C6.5 8.46601 13.434 1.5 21.9875 1.5H26.1175C34.671 1.5 41.605 8.46601 41.605 17.059V32.618H6.5V17.059Z" fill="#00B871"/>
<ellipse cx="91.6837" cy="96.5456" rx="29.8161" ry="29.9538" fill="#00B871"/>
<path d="M100.173 88.2482C97.9677 86.1741 95.1062 85.0371 92.0705 85.0398C86.6072 85.0446 81.8906 88.8079 80.5884 94.0281C80.4936 94.4082 80.1566 94.6765 79.7666 94.6765H75.7249C75.196 94.6765 74.7943 94.1942 74.8921 93.672C76.4182 85.5304 83.5336 79.3711 92.0812 79.3711C96.7679 79.3711 101.024 81.223 104.164 84.238L106.684 81.7073C107.75 80.636 109.573 81.3947 109.573 82.9098V92.409C109.573 93.3483 108.815 94.1096 107.88 94.1096H98.425C96.9168 94.1096 96.1616 92.2779 97.228 91.2065L100.173 88.2482V88.2482ZM76.2819 99.7783H85.7374C87.2456 99.7783 88.0008 101.61 86.9344 102.681L83.9897 105.64C86.1947 107.714 89.0564 108.851 92.0922 108.848C97.5527 108.843 102.271 105.083 103.574 99.8599C103.669 99.4799 104.006 99.2116 104.396 99.2116H108.438C108.966 99.2116 109.368 99.6939 109.27 100.216C107.744 108.358 100.629 114.517 92.0812 114.517C87.3944 114.517 83.1383 112.665 79.9979 109.65L77.4788 112.181C76.4124 113.252 74.5891 112.493 74.5891 110.978V101.479C74.5891 100.54 75.347 99.7783 76.2819 99.7783Z" fill="white"/>
<path fill-rule="evenodd" clip-rule="evenodd" d="M6.5 15.9638C6.5 8.00767 13.0165 1.5 20.9361 1.5H96.9479C104.867 1.5 111.345 8.00767 111.345 15.9638V54.1259L111.345 54.1486C111.345 54.168 111.345 54.1875 111.345 54.2069V60.9482C105.558 57.756 98.9119 55.9404 91.8437 55.9404C87.2565 55.9404 82.8471 56.7051 78.7349 58.1145H45.7444V75.2188H57.3536C55.8272 77.6863 54.5559 80.3296 53.5766 83.1116H45.7444V98.9365H51.3253C51.4708 101.646 51.8797 104.286 52.5267 106.83H20.9361C13.0165 106.83 6.5 100.283 6.5 92.3267V29.1261V15.9638ZM37.8878 58.1145V75.2188H14.3566V58.1145H37.8878ZM37.8878 83.1116H14.3566V92.3267C14.3566 96.0426 17.2373 98.9365 20.9361 98.9365H37.8878V83.1116ZM103.489 50.2217V33.0688H45.7444V50.2217H103.489ZM37.8878 50.2217V33.0688H14.3566V50.2217H37.8878ZM14.3566 25.1758H37.8878V9.39302H20.9361C17.2373 9.39302 14.3566 12.2481 14.3566 15.9638V25.1758ZM45.7444 25.1758H103.489V15.9638C103.489 12.2481 100.647 9.39302 96.9479 9.39302H45.7444V25.1758Z" fill="#243665"/>
</svg>