<svg width="30" height="30" viewBox="0 0 30 30" fill="none" xmlns="http://www.w3.org/2000/svg">
<g clip-path="url(#clip0_146_274)">
<path fill-rule="evenodd" clip-rule="evenodd" d="M25.4382 4.21948H2.58667V23.7898H12.3234C12.2804 23.4211 12.2583 23.0461 12.2583 22.6658C12.2583 17.3891 16.5162 13.1114 21.7687 13.1114C23.0694 13.1114 24.3091 13.3737 25.4382 13.8486V4.21948Z" fill="white"/>
<path d="M1.76636 3.99821C1.76636 1.98422 3.39151 0.351562 5.39624 0.351562H22.6987C24.7034 0.351562 26.3285 1.98422 26.3285 3.99821V7.64485H1.76636V3.99821Z" fill="#30DF83"/>
<path d="M1.76636 3.99821C1.76636 1.98422 3.39151 0.351562 5.39624 0.351562H6.3642C8.36893 0.351562 9.99408 1.98422 9.99408 3.99821V7.64485H1.76636V3.99821Z" fill="#00B871"/>
<ellipse cx="21.7311" cy="22.6278" rx="6.98814" ry="7.02041" fill="#00B871"/>
<path d="M23.7205 20.683C23.2037 20.1969 22.5331 19.9304 21.8216 19.931C20.5411 19.9321 19.4357 20.8142 19.1304 22.0377C19.1082 22.1267 19.0292 22.1896 18.9378 22.1896H17.9906C17.8666 22.1896 17.7725 22.0766 17.7954 21.9542C18.1531 20.046 19.8207 18.6024 21.8241 18.6024C22.9225 18.6024 23.9201 19.0365 24.6561 19.7431L25.2465 19.15C25.4964 18.8989 25.9238 19.0767 25.9238 19.4318V21.6582C25.9238 21.8783 25.7462 22.0568 25.527 22.0568H23.3109C22.9574 22.0568 22.7804 21.6274 23.0303 21.3763L23.7205 20.683V20.683ZM18.1211 23.3854H20.3373C20.6907 23.3854 20.8677 23.8147 20.6178 24.0658L19.9276 24.7591C20.4444 25.2453 21.1151 25.5118 21.8267 25.5111C23.1065 25.51 24.2123 24.6285 24.5177 23.4045C24.5399 23.3154 24.6189 23.2525 24.7103 23.2525H25.6576C25.7815 23.2525 25.8757 23.3656 25.8528 23.488C25.4951 25.3961 23.8274 26.8397 21.8241 26.8397C20.7256 26.8397 19.7281 26.4057 18.9921 25.699L18.4016 26.2922C18.1517 26.5432 17.7244 26.3654 17.7244 26.0103V23.7839C17.7244 23.5638 17.902 23.3854 18.1211 23.3854Z" fill="white"/>
<path fill-rule="evenodd" clip-rule="evenodd" d="M1.76685 3.74103C1.76685 1.87631 3.29415 0.351074 5.1503 0.351074H22.9656C24.8217 0.351074 26.3399 1.87631 26.3399 3.74103V14.2842C24.9835 13.5359 23.4257 13.1103 21.769 13.1103C20.6939 13.1103 19.6605 13.2896 18.6967 13.6199H10.9646V17.6287H13.6854C13.3276 18.207 13.0297 18.8265 12.8002 19.4785H10.9646V23.1878H12.2725C12.3066 23.8229 12.4025 24.4415 12.5541 25.0377H5.1503C3.29415 25.0377 1.76685 23.5033 1.76685 21.6386V3.74103ZM9.12321 2.201H5.1503C4.28341 2.201 3.60824 2.87016 3.60824 3.74103V5.89965H9.12321V2.201ZM3.60824 11.77V7.74958H9.12321V11.77H3.60824ZM3.60824 13.6199V17.6287H9.12321V13.6199H3.60824ZM3.60824 21.6386V19.4785H9.12321V23.1878H5.1503C4.28341 23.1878 3.60824 22.5095 3.60824 21.6386ZM24.4985 11.77V7.74958H10.9646V11.77H24.4985ZM24.4985 3.74103V5.89965H10.9646V2.201H22.9656C23.8325 2.201 24.4985 2.87016 24.4985 3.74103Z" fill="#243665"/>
</g>
<defs>
<clipPath id="clip0_146_274">
<rect width="30" height="30" fill="white"/>
</clipPath>
</defs>
</svg>
