<svg width="20" height="20" viewBox="0 0 20 20" fill="none" xmlns="http://www.w3.org/2000/svg">
<path d="M1.0769 2.4152C1.0769 1.08132 2.15822 0 3.4921 0H15.0045C16.3384 0 17.4197 1.08132 17.4197 2.4152V4.83039H1.0769V2.4152Z" fill="#00B871"/>
<path d="M1.0769 2.4152C1.0769 1.08132 2.15822 0 3.4921 0H4.13615C5.47003 0 6.55135 1.08132 6.55135 2.4152V4.83039H1.0769V2.4152Z" fill="#13CC84"/>
<circle cx="14.3608" cy="14.7543" r="4.64966" fill="#13CC84"/>
<path d="M15.6847 13.4662C15.3408 13.1443 14.8946 12.9678 14.4212 12.9682C13.5692 12.9689 12.8337 13.5531 12.6306 14.3634C12.6158 14.4224 12.5633 14.4641 12.5025 14.4641H11.8722C11.7897 14.4641 11.7271 14.3892 11.7423 14.3082C11.9803 13.0444 13.0899 12.0883 14.4229 12.0883C15.1537 12.0883 15.8175 12.3757 16.3072 12.8437L16.7 12.4509C16.8663 12.2846 17.1507 12.4024 17.1507 12.6376V14.1121C17.1507 14.2579 17.0325 14.3761 16.8867 14.3761H15.4122C15.177 14.3761 15.0592 14.0918 15.2255 13.9254L15.6847 13.4662V13.4662ZM11.959 15.256H13.4336C13.6688 15.256 13.7866 15.5404 13.6203 15.7067L13.161 16.1659C13.5049 16.4879 13.9512 16.6644 14.4246 16.6639C15.2761 16.6632 16.0119 16.0794 16.2151 15.2687C16.2299 15.2097 16.2825 15.1681 16.3433 15.1681H16.9736C17.056 15.1681 17.1187 15.2429 17.1034 15.324C16.8654 16.5878 15.7558 17.5439 14.4229 17.5439C13.692 17.5439 13.0283 17.2564 12.5385 16.7884L12.1457 17.1812C11.9794 17.3475 11.6951 17.2297 11.6951 16.9946V15.52C11.6951 15.3742 11.8133 15.256 11.959 15.256Z" fill="white"/>
<path fill-rule="evenodd" clip-rule="evenodd" d="M1.07714 2.24519C1.07714 1.01017 2.09335 0 3.32837 0H15.182C16.417 0 17.4272 1.01017 17.4272 2.24519V9.22812C16.5247 8.73254 15.4882 8.45068 14.3859 8.45068C13.6705 8.45068 12.9829 8.56939 12.3416 8.78818H7.19697V11.4433H9.00729C8.76927 11.8263 8.57102 12.2366 8.41831 12.6685H7.19697V15.1249H8.06726C8.08994 15.5455 8.1537 15.9552 8.25461 16.3501H3.32837C2.09335 16.3501 1.07714 15.3339 1.07714 14.0989V4.3045L1.07691 4.29092C1.07688 4.28445 1.07696 4.27798 1.07714 4.27153V2.24519ZM2.30234 7.56299V4.90052H5.97177V7.56299H2.30234ZM2.30234 8.78818V11.4433H5.97177V8.78818H2.30234ZM2.30234 14.0989V12.6685H5.97177V15.1249H3.32837C2.75157 15.1249 2.30234 14.6757 2.30234 14.0989ZM16.202 7.56299V4.90052H7.19697V7.56299H16.202ZM7.19697 3.6753H16.202V2.24519C16.202 1.66841 15.7588 1.22522 15.182 1.22522H7.19697V3.6753ZM2.30234 3.6753H5.97177V1.22522H3.32837C2.75157 1.22522 2.30234 1.66841 2.30234 2.24519V3.6753Z" fill="white"/>
</svg>
